mtllib ./Prism.mtl
g Prism
v 0 0.5 -0.5
v -0.5 -0.5 -0.5
v 0.5 -0.5 -0.5
v 0 0.5 -0.5
v -0.5 -0.5 0.5
v -0.5 -0.5 -0.5
v 0 0.5 0.5
v 0 0.5 0.5
v 0.5 -0.5 0.5
v -0.5 -0.5 0.5
v 0 0.5 0.5
v 0.5 -0.5 -0.5
v 0.5 -0.5 0.5
v 0 0.5 -0.5
v 0.5 -0.5 -0.5
v -0.5 -0.5 -0.5
v 0.5 -0.5 0.5
v -0.5 -0.5 0.5

vn 0 0 -1
vn 0 0 -1
vn 0 0 -1
vn -0.8944272 0.4472136 0
vn -0.8944272 0.4472136 0
vn -0.8944272 0.4472136 0
vn -0.8944272 0.4472136 0
vn 0 0 1
vn 0 0 1
vn 0 0 1
vn 0.8944272 0.4472136 0
vn 0.8944272 0.4472136 0
vn 0.8944272 0.4472136 0
vn 0.8944272 0.4472136 0
vn 0 -1 0
vn 0 -1 0
vn 0 -1 0
vn 0 -1 0

vt 0.5 1
vt 1 0
vt 0 0
vt 0 1.118034
vt 1 0
vt 0 0
vt 1 1.118034
vt 0.5 1
vt 1 0
vt 0 0
vt 0 1.118034
vt 1 0
vt 0 0
vt 1 1.118034
vt 1 0
vt 0 0
vt 1 1
vt 0 1

g Default_Prototype
usemtl Default_Prototype
usemap Default_Prototype
f 2/2/2 1/1/1 3/3/3
f 5/5/5 4/4/4 6/6/6
f 7/7/7 4/4/4 5/5/5
f 9/9/9 8/8/8 10/10/10
f 12/12/12 11/11/11 13/13/13
f 14/14/14 11/11/11 12/12/12
f 16/16/16 15/15/15 17/17/17
f 18/18/18 16/16/16 17/17/17
